<svg xmlns="http://www.w3.org/2000/svg" version="1.1" xmlns:xlink="http://www.w3.org/1999/xlink" xmlns:svgjs="http://svgjs.com/svgjs" width="1440" height="560" preserveAspectRatio="none" viewBox="0 0 1440 560"><g mask="url(&quot;#SvgjsMask1292&quot;)" fill="none"><rect width="1440" height="560" x="0" y="0" fill="rgba(244, 244, 244, 1)"></rect><rect width="324" height="324" clip-path="url(&quot;#SvgjsClipPath1293&quot;)" x="123.63" y="107.76" fill="url(#SvgjsPattern1294)" transform="rotate(349.71, 285.63, 269.76)"></rect><path d="M501.69 359.06a5.6 5.6 0 1 0-11.15-0.97 5.6 5.6 0 1 0 11.15 0.97zM485.75 357.67a5.6 5.6 0 1 0-11.15-0.98 5.6 5.6 0 1 0 11.15 0.98zM469.82 356.27a5.6 5.6 0 1 0-11.16-0.97 5.6 5.6 0 1 0 11.16 0.97zM453.88 354.88a5.6 5.6 0 1 0-11.16-0.98 5.6 5.6 0 1 0 11.16 0.98z" fill="rgba(222, 222, 222, 1)"></path><rect width="156" height="156" clip-path="url(&quot;#SvgjsClipPath1295&quot;)" x="537.93" y="-66.89" fill="url(#SvgjsPattern1296)" transform="rotate(195.11, 615.93, 11.11)"></rect><path d="M883.73 237.31L871.12 239.56 866.16 227.76 853.55 230.01 848.59 218.2 835.98 220.46 831.02 208.65M887.55 230.28L874.95 232.53 869.98 220.73 857.37 222.98 852.41 211.18 839.8 213.43 834.84 201.62" stroke="rgba(218, 218, 214, 1)" stroke-width="2.9" stroke-dasharray="3, 2"></path><rect width="156" height="156" clip-path="url(&quot;#SvgjsClipPath1297&quot;)" x="1145.96" y="-1.96" fill="url(#SvgjsPattern1298)" transform="rotate(206.66, 1223.96, 76.04)"></rect><path d="M512.51 129.14 L475.31 30.82L448.6560599558037 125.23394004419629z" stroke="rgba(218, 218, 214, 1)" stroke-width="2.82" stroke-dasharray="3, 2"></path><rect width="60" height="60" clip-path="url(&quot;#SvgjsClipPath1299&quot;)" x="405.63" y="224.36" fill="url(#SvgjsPattern1300)" transform="rotate(303.36, 435.63, 254.36)"></rect><rect width="92.8" height="92.8" clip-path="url(&quot;#SvgjsClipPath1301&quot;)" x="1218.91" y="86.87" fill="url(#SvgjsPattern1302)" transform="rotate(117.19, 1265.31, 133.27)"></rect><path d="M886.74 140.48 L852 122.06L893.5640764646305 107.0759235353695z" fill="rgba(229, 235, 229, 1)"></path><rect width="95.8" height="95.8" clip-path="url(&quot;#SvgjsClipPath1303&quot;)" x="853.74" y="248.68" fill="url(#SvgjsPattern1304)" transform="rotate(167.14, 901.64, 296.58)"></rect><rect width="360" height="360" clip-path="url(&quot;#SvgjsClipPath1305&quot;)" x="1256.85" y="102.7" fill="url(#SvgjsPattern1306)" transform="rotate(185, 1436.85, 282.7)"></rect><rect width="60" height="60" clip-path="url(&quot;#SvgjsClipPath1307&quot;)" x="81.13" y="113.5" fill="url(#SvgjsPattern1308)" transform="rotate(215.9, 111.13, 143.5)"></rect></g><defs><mask id="SvgjsMask1292"><rect width="1440" height="560" fill="#ffffff"></rect></mask><pattern x="0" y="0" width="6" height="6" patternUnits="userSpaceOnUse" id="SvgjsPattern1294"><path d="M0 6L3 0L6 6" stroke="rgba(218, 218, 214, 1)" fill="none"></path></pattern><clipPath id="SvgjsClipPath1293"><circle r="81" cx="285.63" cy="269.76"></circle></clipPath><pattern x="0" y="0" width="6" height="6" patternUnits="userSpaceOnUse" id="SvgjsPattern1296"><path d="M0 6L3 0L6 6" stroke="rgba(229, 235, 229, 1)" fill="none"></path></pattern><clipPath id="SvgjsClipPath1295"><circle r="39" cx="615.93" cy="11.11"></circle></clipPath><pattern x="0" y="0" width="6" height="6" patternUnits="userSpaceOnUse" id="SvgjsPattern1298"><path d="M3 1L3 5M1 3L5 3" stroke="rgba(222, 222, 222, 1)" fill="none" stroke-width="1"></path></pattern><clipPath id="SvgjsClipPath1297"><circle r="39" cx="1223.96" cy="76.04"></circle></clipPath><pattern x="0" y="0" width="6" height="6" patternUnits="userSpaceOnUse" id="SvgjsPattern1300"><path d="M3 1L3 5M1 3L5 3" stroke="rgba(222, 222, 222, 1)" fill="none" stroke-width="1"></path></pattern><clipPath id="SvgjsClipPath1299"><circle r="15" cx="435.63" cy="254.36"></circle></clipPath><pattern x="0" y="0" width="9.28" height="9.28" patternUnits="userSpaceOnUse" id="SvgjsPattern1302"><path d="M0 9.28L4.64 0L9.28 9.28" stroke="rgba(218, 218, 214, 1)" fill="none"></path></pattern><clipPath id="SvgjsClipPath1301"><circle r="23.2" cx="1265.31" cy="133.27"></circle></clipPath><pattern x="0" y="0" width="95.8" height="9.58" patternUnits="userSpaceOnUse" id="SvgjsPattern1304"><rect width="95.8" height="4.79" x="0" y="0" fill="rgba(218, 218, 214, 1)"></rect><rect width="95.8" height="4.79" x="0" y="4.79" fill="rgba(0, 0, 0, 0)"></rect></pattern><clipPath id="SvgjsClipPath1303"><circle r="23.95" cx="901.64" cy="296.58"></circle></clipPath><pattern x="0" y="0" width="360" height="6" patternUnits="userSpaceOnUse" id="SvgjsPattern1306"><rect width="360" height="3" x="0" y="0" fill="rgba(222, 222, 222, 1)"></rect><rect width="360" height="3" x="0" y="3" fill="rgba(0, 0, 0, 0)"></rect></pattern><clipPath id="SvgjsClipPath1305"><circle r="90" cx="1436.85" cy="282.7"></circle></clipPath><pattern x="0" y="0" width="60" height="6" patternUnits="userSpaceOnUse" id="SvgjsPattern1308"><rect width="60" height="3" x="0" y="0" fill="rgba(218, 218, 214, 1)"></rect><rect width="60" height="3" x="0" y="3" fill="rgba(0, 0, 0, 0)"></rect></pattern><clipPath id="SvgjsClipPath1307"><circle r="15" cx="111.13" cy="143.5"></circle></clipPath></defs></svg>