<svg xmlns="http://www.w3.org/2000/svg" version="1.1" xmlns:xlink="http://www.w3.org/1999/xlink" xmlns:svgjs="http://svgjs.com/svgjs" width="1440" height="560" preserveAspectRatio="none" viewBox="0 0 1440 560"><g mask="url(&quot;#SvgjsMask1031&quot;)" fill="none"><rect width="1440" height="560" x="0" y="0" fill="rgba(244, 244, 244, 1)"></rect><path d="M0,675.253C124.121,664.817,190.923,527.186,292.214,454.694C386.951,386.892,514.465,361.977,575.975,263.039C640.304,159.567,654.494,28.845,631.331,-90.772C608.71,-207.59,523.236,-296.115,449.601,-389.581C372.318,-487.677,313.462,-626.307,190.83,-649.906C67.609,-673.619,-30.115,-547.148,-148.169,-504.617C-256.644,-465.537,-386.684,-486.102,-473.729,-410.489C-564.829,-331.354,-612.779,-209.934,-625.544,-89.94C-638.069,27.802,-597.002,142.564,-543.814,248.352C-492.138,351.133,-416.087,435.605,-325.598,506.64C-227.472,583.67,-124.31,685.705,0,675.253" fill="#e8e8e8"></path><path d="M1440 1114.394C1542.747 1129.223 1632.756 1051.66 1723.042 1000.422 1818.479 946.26 1929.09 903.722 1981.298 807.202 2034.608 708.646 2037.138 586.143 2005.229 478.73199999999997 1975.295 377.969 1878.445 319.106 1812.0810000000001 237.58999999999997 1743.077 152.83100000000002 1706.413 36.21900000000005 1607.3600000000001-9.976999999999975 1503.721-58.31200000000001 1381.493-45.10799999999995 1271.274-14.629000000000019 1159.915 16.164999999999964 1053.189 72.12599999999998 981.8389999999999 163.00099999999998 912.09 251.836 873.869 367.336 882.984 479.913 891.359 583.35 968.4010000000001 663.499 1029.172 747.619 1079.027 816.629 1141.497 868.961 1205.005 925.659 1281.5 993.951 1338.508 1099.7469999999998 1440 1114.394" fill="#ffffff"></path></g><defs><mask id="SvgjsMask1031"><rect width="1440" height="560" fill="#ffffff"></rect></mask></defs></svg>