<svg xmlns="http://www.w3.org/2000/svg" version="1.1" xmlns:xlink="http://www.w3.org/1999/xlink" xmlns:svgjs="http://svgjs.com/svgjs" width="1440" height="560" preserveAspectRatio="none" viewBox="0 0 1440 560"><g mask="url(&quot;#SvgjsMask1060&quot;)" fill="none"><rect width="1440" height="560" x="0" y="0" fill="rgba(216, 215, 215, 1)"></rect><path d="M 0,71 C 57.6,89.4 172.8,173.8 288,163 C 403.2,152.2 460.8,20.4 576,17 C 691.2,13.6 748.8,133 864,146 C 979.2,159 1036.8,74.6 1152,82 C 1267.2,89.4 1382.4,162.8 1440,183L1440 560L0 560z" fill="rgba(244, 244, 244, 1)"></path><path d="M 0,557 C 96,516.6 288,372.6 480,355 C 672,337.4 768,475.4 960,469 C 1152,462.6 1344,352.2 1440,323L1440 560L0 560z" fill="rgba(151, 152, 152, 0.61)"></path></g><defs><mask id="SvgjsMask1060"><rect width="1440" height="560" fill="#ffffff"></rect></mask></defs></svg>